<?xml version="1.0" encoding="UTF-8"?>
<svg xmlns="http://www.w3.org/2000/svg" viewBox="0 0 1080 1080">
  <path d="M0 0 C3.70324852 0.00533435 7.40637442 0.00004191 11.10961914 -0.00634766 C48.01554642 -0.02054972 48.01554642 -0.02054972 60.36108398 2.58154297 C63.62684709 3.25028367 66.90259699 3.72907403 70.20141602 4.20849609 C92.05458778 7.43291558 113.73323384 11.25320422 134.71655273 18.35400391 C137.52635094 19.29237382 140.34805276 20.19066145 143.17016602 21.09130859 C215.78109707 44.46692368 286.49306266 87.68639581 336.31469727 146.12646484 C338.25867022 148.38270495 340.27449494 150.56401002 342.29125977 152.75537109 C347.38337543 158.40078965 352.03795968 164.35024954 356.67700195 170.36767578 C357.9785304 172.04932133 359.29273642 173.72009484 360.61157227 175.38818359 C366.87543116 183.34936984 372.5802786 191.60059995 378.04125977 200.13037109 C378.54028809 200.90912598 379.03931641 201.68788086 379.5534668 202.49023438 C413.23472431 255.3408679 436.22280819 314.14106833 446.04125977 376.13037109 C446.2373584 377.32275391 446.43345703 378.51513672 446.63549805 379.74365234 C450.02708803 401.28565642 450.41337042 422.80743995 450.41625977 444.56787109 C450.41772696 445.59018137 450.41772696 445.59018137 450.41922379 446.63314438 C450.45066378 469.54168983 449.04639937 491.72854409 445.29125977 514.31787109 C445.16220245 515.10487396 445.03314514 515.89187683 444.900177 516.70272827 C441.76528928 535.73394061 437.96881317 554.63846589 431.7746582 572.93896484 C430.91558032 575.50590327 430.09208396 578.08329562 429.26782227 580.66162109 C424.8260424 594.43595333 419.80880553 607.85692509 414.04125977 621.13037109 C413.62505371 622.08911133 413.20884766 623.04785156 412.7800293 624.03564453 C402.98157504 646.40577007 391.54368613 667.77576167 378.04125977 688.13037109 C377.58009766 688.82565918 377.11893555 689.52094727 376.64379883 690.23730469 C364.54361628 708.36181517 351.29770753 725.37984413 336.52563477 741.39990234 C334.58105275 743.53710805 332.68764713 745.69910809 330.80297852 747.88818359 C326.76217597 752.51861012 322.45895681 756.85972568 318.10375977 761.19287109 C316.96390625 762.33852539 316.96390625 762.33852539 315.80102539 763.50732422 C311.04422481 768.25600046 306.14838829 772.76279036 301.04125977 777.13037109 C299.9117124 778.11531342 298.78277981 779.10096133 297.65454102 780.08740234 C289.99691507 786.73111462 282.18618837 793.09128941 274.04125977 799.13037109 C273.36579102 799.63181641 272.69032227 800.13326172 271.99438477 800.64990234 C229.60722745 831.98285497 181.89767161 856.79091145 131.04125977 871.13037109 C130.40806824 871.31063843 129.77487671 871.49090576 129.12249756 871.67663574 C108.59058886 877.51168714 88.12648435 882.00882341 66.93823242 884.64257812 C64.45413915 884.95351775 61.97173906 885.27853554 59.49194336 885.62207031 C22.97947344 890.64558066 -16.52515753 890.86243898 -52.95874023 885.13037109 C-54.67843018 884.87296143 -54.67843018 884.87296143 -56.43286133 884.61035156 C-95.36892914 878.70102566 -132.80956812 868.86621526 -168.95874023 853.13037109 C-169.99901367 852.67903809 -171.03928711 852.22770508 -172.11108398 851.76269531 C-205.87896116 836.99191045 -238.14353654 818.16702115 -266.95874023 795.13037109 C-267.86495117 794.40591797 -268.77116211 793.68146484 -269.70483398 792.93505859 C-272.47658369 790.69030339 -275.22268836 788.41850179 -277.95874023 786.13037109 C-278.4854834 785.68999512 -279.01222656 785.24961914 -279.55493164 784.79589844 C-295.62306682 771.31591926 -311.72777403 757.08625559 -325.31030273 741.05224609 C-326.48456454 739.68320152 -327.69162779 738.342006 -328.91967773 737.02099609 C-335.60108816 729.83305275 -341.48951099 722.10787199 -347.36401367 714.26025391 C-348.82933409 712.30320318 -350.30361463 710.3532325 -351.77905273 708.40380859 C-364.21645904 691.84387855 -374.98117442 674.26091727 -384.95874023 656.13037109 C-385.41990234 655.29989258 -385.88106445 654.46941406 -386.35620117 653.61376953 C-408.23763138 613.99735472 -422.42141535 570.46530618 -430.95874023 526.13037109 C-431.14911865 525.15535645 -431.33949707 524.1803418 -431.53564453 523.17578125 C-433.91481659 510.88618082 -435.9865002 498.62018321 -436.95874023 486.13037109 C-437.04704102 485.00381104 -437.1353418 483.87725098 -437.22631836 482.71655273 C-438.08620904 470.69020635 -438.1115407 458.67220893 -438.08911133 446.61987305 C-438.0837547 443.20210322 -438.08908667 439.78446507 -438.09545898 436.36669922 C-438.10623223 404.61836761 -438.10623223 404.61836761 -435.48217773 389.21630859 C-434.96238404 386.15185325 -434.54953212 383.08712984 -434.14624023 380.00537109 C-424.74148341 313.94991371 -400.25198624 248.96918943 -361.95874023 194.13037109 C-361.06017771 192.81925885 -360.16175048 191.50805388 -359.26342773 190.19677734 C-352.72700743 180.72840482 -345.76252974 171.72478074 -338.40600586 162.88183594 C-336.41248432 160.46929823 -334.47272953 158.01446045 -332.52124023 155.56787109 C-324.15639713 145.37797131 -314.87603076 135.96850635 -305.58374023 126.63037109 C-304.94235107 125.98430908 -304.30096191 125.33824707 -303.64013672 124.67260742 C-299.24289786 120.29011868 -294.66160078 116.18064237 -289.95874023 112.13037109 C-288.75579528 111.07305256 -287.55394233 110.01449011 -286.35327148 108.95458984 C-278.45022252 102.01692367 -270.41936507 95.38407466 -261.95874023 89.13037109 C-261.28472168 88.63037598 -260.61070312 88.13038086 -259.91625977 87.61523438 C-242.63830328 74.84220698 -224.77467003 63.504578 -205.95874023 53.13037109 C-205.10795898 52.66099121 -204.25717773 52.19161133 -203.38061523 51.70800781 C-156.39205848 25.98861948 -102.68319527 7.79549424 -49.19848633 2.77563477 C-45.10737072 2.42889573 -45.10737072 2.42889573 -41.08813477 1.63818359 C-28.0776691 -1.4645186 -13.24727485 -0.0226613 0 0 Z M-0.02124023 89.19287109 C-0.6560733 89.33799133 -1.29090637 89.48311157 -1.94497681 89.63262939 C-24.04967548 94.72735726 -45.6350559 102.01175241 -65.95874023 112.13037109 C-66.74216797 112.51660645 -67.5255957 112.9028418 -68.33276367 113.30078125 C-106.71998645 132.38502733 -144.01743093 160.7885156 -169.95874023 195.13037109 C-170.72573242 196.09201172 -171.49272461 197.05365234 -172.28295898 198.04443359 C-183.49777886 212.15519289 -193.16857801 227.41225376 -201.95874023 243.13037109 C-202.61374512 244.29463623 -202.61374512 244.29463623 -203.28198242 245.48242188 C-213.97521715 264.66326732 -222.63191485 285.09177101 -228.95874023 306.13037109 C-229.2900293 307.19771484 -229.62131836 308.26505859 -229.96264648 309.36474609 C-254.80343557 392.36220609 -247.16927263 485.89646238 -209.95874023 564.13037109 C-209.62422852 564.83419922 -209.2897168 565.53802734 -208.94506836 566.26318359 C-207.0182762 570.27451698 -205.018263 574.24271197 -202.96362305 578.18994141 C-201.94350659 580.15978728 -200.94644366 582.14018341 -199.95092773 584.12255859 C-190.51146463 602.69184919 -178.98181772 619.8990941 -165.95874023 636.13037109 C-165.3189624 636.93571289 -165.3189624 636.93571289 -164.66625977 637.75732422 C-160.03999558 643.57534408 -155.20819098 649.17703758 -150.20092773 654.66943359 C-148.71554962 656.29972664 -147.24137296 657.94030189 -145.77905273 659.59130859 C-137.71677494 668.68647607 -129.23881944 677.27544691 -119.95874023 685.13037109 C-118.59749023 686.32533203 -118.59749023 686.32533203 -117.20874023 687.54443359 C-86.08567196 714.6897781 -48.82411345 735.43872717 -9.95874023 749.13037109 C-9.20512207 749.3980127 -8.45150391 749.6656543 -7.67504883 749.94140625 C57.6130269 772.77415743 126.83300451 770.94542158 192.04125977 749.13037109 C192.84354004 748.86643555 193.64582031 748.6025 194.47241211 748.33056641 C226.45545137 737.68706731 256.11947351 719.4378483 282.04125977 698.13037109 C282.57960449 697.69499023 283.11794922 697.25960937 283.67260742 696.81103516 C298.81897474 684.52238781 313.16235028 670.61578061 325.04125977 655.13037109 C325.98432584 653.97252385 326.93123532 652.81780087 327.88110352 651.66552734 C334.85626527 643.17166094 341.17439496 634.42265633 347.04125977 625.13037109 C347.40783691 624.55416016 347.77441406 623.97794922 348.15209961 623.38427734 C374.83438474 581.15228904 391.41177368 533.54784821 398.04125977 484.13037109 C398.17256287 483.17017563 398.17256287 483.17017563 398.30651855 482.19058228 C400.06051097 468.98589276 400.35208366 455.88807095 400.30200195 442.57885742 C400.29128449 439.20066339 400.30196144 435.82300223 400.31469727 432.44482422 C400.32351072 419.21752065 399.70497758 406.25314152 398.04125977 393.13037109 C397.83823242 391.45890015 397.83823242 391.45890015 397.63110352 389.75366211 C392.7585821 352.20196839 381.20675032 315.28240091 365.04125977 281.13037109 C364.62376465 280.24172363 364.20626953 279.35307617 363.77612305 278.4375 C351.85604768 253.25923687 336.73995832 229.6387129 319.04125977 208.13037109 C318.37296143 207.31560303 318.37296143 207.31560303 317.69116211 206.484375 C304.73539418 190.75936412 290.81737416 175.08540948 275.04125977 162.13037109 C274.5449707 161.72028809 274.04868164 161.31020508 273.53735352 160.88769531 C229.32275175 124.48245912 178.49307852 98.72241225 122.22875977 87.44287109 C121.24697754 87.24032715 120.26519531 87.0377832 119.25366211 86.82910156 C101.58869591 83.43210165 83.65327541 82.77657708 65.70996094 82.81469727 C62.60844979 82.8178663 59.50788937 82.79422973 56.40649414 82.76904297 C37.2729755 82.70719981 18.62338899 84.88285066 -0.02124023 89.19287109 Z " fill="#FEFEFE" transform="translate(533.958740234375,95.86962890625)"/>
</svg>
